<?xml version="1.0" encoding="UTF-8"?>
<svg width="394px" height="129px" viewBox="0 0 394 129" version="1.1" xmlns="http://www.w3.org/2000/svg" xmlns:xlink="http://www.w3.org/1999/xlink">
    <!-- Generator: Sketch 53 (72520) - https://sketchapp.com -->
    <title>VIB CORE PLANT SYSTEMS BIOLOGY outlines</title>
    <desc>Created with Sketch.</desc>
    <defs>
        <polygon id="path-1" points="0.633490793 0.0579170295 34.5006894 0.0579170295 34.5006894 64.9299338 0.633490793 64.9299338"></polygon>
        <polygon id="path-3" points="0.00503770014 0.711575145 68.3298534 0.711575145 68.3298534 69.0408499 0.00503770014 69.0408499"></polygon>
    </defs>
    <g id="VIB-CORE-PLANT-SYSTEMS-BIOLOGY-outlines" stroke="none" stroke-width="1" fill="none" fill-rule="evenodd">
        <g id="VIB-CORE-FACILITIES-LOGO" transform="translate(0.000000, 0.669359)">
            <path d="M116.034867,24.300289 C116.034867,11.0259491 105.27434,0.265421603 92,0.265421603 C78.728179,0.265421603 67.9651326,11.0259491 67.9651326,24.300289 C67.9651326,37.5746288 78.728179,48.3351563 92,48.3351563 C105.27434,48.3351563 116.034867,37.5746288 116.034867,24.300289" id="Fill-1" fill="#42B7BA"></path>
            <g id="Group-5" transform="translate(36.043962, 35.620761) rotate(135.000000) translate(-36.043962, -35.620761) translate(18.543962, 3.120761)">
                <mask id="mask-2" fill="white">
                    <use xlink:href="#path-1"></use>
                </mask>
                <g id="Clip-4"></g>
                <path d="M0.633490793,2.04780858 L0.633490793,62.9460467 C0.633490793,64.7092418 2.7669568,65.5933582 4.01126874,64.3465274 L33.5296727,34.8306422 C34.8243616,33.5359533 34.8243616,31.4377512 33.5296727,30.1430623 L4.02638184,0.642290246 C2.77451335,-0.612097089 0.633490793,0.277056986 0.633490793,2.04780858" id="Fill-3" fill="#5D2B83" mask="url(#mask-2)"></path>
            </g>
            <g id="Group-8" transform="translate(23.000000, 53.008952)">
                <mask id="mask-4" fill="white">
                    <use xlink:href="#path-3"></use>
                </mask>
                <g id="Clip-7"></g>
                <path d="M68.3298534,67.7482509 L68.3298534,3.33117922 C68.3298534,1.88535928 67.1560693,0.711575145 65.7102493,0.711575145 L1.29317763,0.711575145 C0.142063144,0.711575145 -0.432234672,2.09946153 0.381353901,2.91305011 L66.1283784,68.6600746 C66.941967,69.4736632 68.3298534,68.8968465 68.3298534,67.7482509" id="Fill-6" fill="#EC662A" mask="url(#mask-4)"></path>
            </g>
            <path d="M125.9,54.3626415 L117.584,72.6416415 C117.476,72.8846415 117.206,73.0466415 116.936,73.0466415 C116.666,73.0466415 116.396,72.8846415 116.288,72.6416415 L107.999,54.3626415 C107.918,54.1736415 108.08,53.9306415 108.296,53.9306415 L112.157,53.9306415 C112.454,53.9306415 112.724,54.1196415 112.832,54.3896415 L116.963,64.6496415 L121.094,54.3896415 C121.202,54.1196415 121.472,53.9306415 121.769,53.9306415 L125.63,53.9306415 C125.846,53.9306415 126.008,54.1736415 125.9,54.3626415 Z M133.766,54.4166415 L133.766,72.3446415 C133.766,72.6146415 133.55,72.8306415 133.28,72.8306415 L129.932,72.8306415 C129.662,72.8306415 129.446,72.6146415 129.446,72.3446415 L129.446,54.4166415 C129.446,54.1466415 129.662,53.9306415 129.932,53.9306415 L133.28,53.9306415 C133.55,53.9306415 133.766,54.1466415 133.766,54.4166415 Z M150.623,63.3536415 C152.027,63.8936415 153.053,65.3786415 153.053,67.0796415 C153.053,69.6446415 151.46,72.8306415 146.222,72.8306415 L139.472,72.8306415 C139.202,72.8306415 138.986,72.6146415 138.986,72.3446415 L138.986,54.4166415 C138.986,54.1466415 139.202,53.9306415 139.472,53.9306415 L146.222,53.9306415 C151.46,53.9306415 153.053,57.1436415 153.053,59.7086415 C153.053,61.0046415 152.054,62.7596415 150.623,63.3536415 Z M146.492,68.8076415 C148.382,68.8076415 148.679,67.5116415 148.679,67.0796415 C148.679,66.5126415 148.409,65.3246415 146.546,65.2706415 L143.279,65.2706415 L143.279,68.8076415 L146.492,68.8076415 Z M146.546,61.6796415 C148.409,61.6256415 148.679,60.2216415 148.679,59.7086415 C148.679,59.2766415 148.382,57.9266415 146.492,57.9266415 L143.279,57.9266415 L143.279,61.6796415 L146.546,61.6796415 Z M157.139,63.2186415 L163.889,63.2186415 C164.159,63.2186415 164.375,63.4346415 164.375,63.7046415 L164.375,65.9996415 C164.375,66.2696415 164.159,66.4856415 163.889,66.4856415 L157.139,66.4856415 C156.869,66.4856415 156.653,66.2696415 156.653,65.9996415 L156.653,63.7046415 C156.653,63.4346415 156.869,63.2186415 157.139,63.2186415 Z M176.345,69.0236415 C178.91,69.0236415 179.558,66.4046415 179.558,65.4056415 L179.558,54.4166415 C179.558,54.1466415 179.774,53.9306415 180.044,53.9306415 L183.419,53.9306415 C183.689,53.9306415 183.905,54.1466415 183.905,54.4166415 L183.905,65.4056415 C183.905,68.6186415 181.961,73.0196415 176.345,73.0196415 C170.729,73.0196415 168.785,68.6186415 168.785,65.4056415 L168.785,54.4166415 C168.785,54.1466415 169.001,53.9306415 169.271,53.9306415 L172.619,53.9306415 C172.889,53.9306415 173.105,54.1466415 173.105,54.4166415 L173.105,65.4056415 C173.105,66.4046415 173.78,69.0236415 176.345,69.0236415 Z M199.871,66.4316415 L196.766,66.4316415 C196.496,66.4316415 196.28,66.2156415 196.28,65.9456415 L196.28,62.9486415 C196.28,62.6786415 196.496,62.4626415 196.766,62.4626415 L203.732,62.4626415 C204.002,62.4626415 204.218,62.6786415 204.218,62.9486415 L204.218,69.6716415 C204.218,69.9956415 204.083,70.2926415 203.867,70.5086415 C202.085,72.1556415 199.952,73.0736415 197.171,73.0736415 C189.989,73.0736415 187.775,67.4036415 187.775,63.3536415 C187.775,59.4116415 189.989,53.6606415 197.171,53.6606415 C200.06,53.6606415 202.193,54.7946415 204.029,56.6036415 C204.218,56.7926415 204.218,57.1166415 204.029,57.3056415 L202.004,59.5196415 C201.815,59.7086415 201.518,59.7086415 201.329,59.5466415 C200.195,58.5476415 198.494,57.7376415 197.171,57.7376415 C192.797,57.7376415 192.176,61.8956415 192.176,63.2996415 C192.176,64.7036415 192.797,69.0776415 197.171,69.0776415 C198.089,69.0776415 199.25,68.7536415 199.871,68.2946415 L199.871,66.4316415 Z M219.158,65.5136415 L212.813,65.5136415 L212.813,68.8076415 L221.075,68.8076415 C221.345,68.8076415 221.561,69.0236415 221.561,69.2936415 L221.561,72.3446415 C221.561,72.6146415 221.345,72.8306415 221.075,72.8306415 L208.979,72.8306415 C208.709,72.8306415 208.493,72.6146415 208.493,72.3446415 L208.493,54.4166415 C208.493,54.1466415 208.709,53.9306415 208.979,53.9306415 L221.075,53.9306415 C221.345,53.9306415 221.561,54.1466415 221.561,54.4166415 L221.561,57.4676415 C221.561,57.7376415 221.345,57.9536415 221.075,57.9536415 L212.813,57.9536415 L212.813,61.4906415 L219.158,61.4906415 C219.428,61.4906415 219.644,61.7066415 219.644,61.9766415 L219.644,65.0276415 C219.644,65.2976415 219.428,65.5136415 219.158,65.5136415 Z M229.562,72.8306415 L226.187,72.8306415 C225.917,72.8306415 225.701,72.6146415 225.701,72.3446415 L225.701,54.0656415 C225.701,53.8496415 225.863,53.6606415 226.079,53.6606415 C226.349,53.6606415 226.592,53.7686415 226.781,53.9306415 L237.041,63.5156415 L237.041,54.4166415 C237.041,54.1466415 237.257,53.9306415 237.527,53.9306415 L240.875,53.9306415 C241.145,53.9306415 241.361,54.1466415 241.361,54.4166415 L241.361,72.6146415 C241.361,72.8036415 241.199,72.9656415 241.01,72.9656415 C240.794,72.9656415 240.578,72.8846415 240.416,72.7226415 L230.048,62.9216415 L230.048,72.3446415 C230.048,72.6146415 229.832,72.8306415 229.562,72.8306415 Z M249.767,72.3446415 L249.767,57.9536415 L245.312,57.9536415 C245.042,57.9536415 244.826,57.7376415 244.826,57.4676415 L244.826,54.4166415 C244.826,54.1466415 245.042,53.9306415 245.312,53.9306415 L258.623,53.9306415 C258.893,53.9306415 259.109,54.1466415 259.109,54.4166415 L259.109,57.4676415 C259.109,57.7376415 258.893,57.9536415 258.623,57.9536415 L254.114,57.9536415 L254.114,72.3446415 C254.114,72.6146415 253.898,72.8306415 253.628,72.8306415 L250.253,72.8306415 C249.983,72.8306415 249.767,72.6146415 249.767,72.3446415 Z M125.252,82.2916415 L123.065,84.3976415 C122.876,84.5596415 122.579,84.5596415 122.39,84.3706415 C121.256,83.2096415 119.447,82.2376415 118.016,82.2376415 C113.642,82.2376415 113.021,86.4496415 113.021,87.8536415 C113.021,89.2576415 113.642,93.4426415 118.043,93.4426415 C119.555,93.4426415 121.337,92.5786415 122.606,91.5256415 C122.822,91.3636415 123.119,91.3636415 123.281,91.5796415 L125.144,93.7936415 C125.333,94.0096415 125.306,94.3336415 125.117,94.5226415 C123.146,96.3856415 120.878,97.5736415 118.016,97.5736415 C110.834,97.5736415 108.62,91.9036415 108.62,87.8536415 C108.62,83.9116415 110.834,78.1606415 118.016,78.1606415 C121.094,78.1606415 123.335,79.4836415 125.279,81.5896415 C125.468,81.7786415 125.441,82.1026415 125.252,82.2916415 Z M140.408,90.0136415 L134.063,90.0136415 L134.063,93.3076415 L142.325,93.3076415 C142.595,93.3076415 142.811,93.5236415 142.811,93.7936415 L142.811,96.8446415 C142.811,97.1146415 142.595,97.3306415 142.325,97.3306415 L130.229,97.3306415 C129.959,97.3306415 129.743,97.1146415 129.743,96.8446415 L129.743,78.9166415 C129.743,78.6466415 129.959,78.4306415 130.229,78.4306415 L142.325,78.4306415 C142.595,78.4306415 142.811,78.6466415 142.811,78.9166415 L142.811,81.9676415 C142.811,82.2376415 142.595,82.4536415 142.325,82.4536415 L134.063,82.4536415 L134.063,85.9906415 L140.408,85.9906415 C140.678,85.9906415 140.894,86.2066415 140.894,86.4766415 L140.894,89.5276415 C140.894,89.7976415 140.678,90.0136415 140.408,90.0136415 Z M150.812,97.3306415 L147.437,97.3306415 C147.167,97.3306415 146.951,97.1146415 146.951,96.8446415 L146.951,78.5656415 C146.951,78.3496415 147.113,78.1606415 147.329,78.1606415 C147.599,78.1606415 147.842,78.2686415 148.031,78.4306415 L158.291,88.0156415 L158.291,78.9166415 C158.291,78.6466415 158.507,78.4306415 158.777,78.4306415 L162.125,78.4306415 C162.395,78.4306415 162.611,78.6466415 162.611,78.9166415 L162.611,97.1146415 C162.611,97.3036415 162.449,97.4656415 162.26,97.4656415 C162.044,97.4656415 161.828,97.3846415 161.666,97.2226415 L151.298,87.4216415 L151.298,96.8446415 C151.298,97.1146415 151.082,97.3306415 150.812,97.3306415 Z M171.017,96.8446415 L171.017,82.4536415 L166.562,82.4536415 C166.292,82.4536415 166.076,82.2376415 166.076,81.9676415 L166.076,78.9166415 C166.076,78.6466415 166.292,78.4306415 166.562,78.4306415 L179.873,78.4306415 C180.143,78.4306415 180.359,78.6466415 180.359,78.9166415 L180.359,81.9676415 C180.359,82.2376415 180.143,82.4536415 179.873,82.4536415 L175.364,82.4536415 L175.364,96.8446415 C175.364,97.1146415 175.148,97.3306415 174.878,97.3306415 L171.503,97.3306415 C171.233,97.3306415 171.017,97.1146415 171.017,96.8446415 Z M194.759,90.0136415 L188.414,90.0136415 L188.414,93.3076415 L196.676,93.3076415 C196.946,93.3076415 197.162,93.5236415 197.162,93.7936415 L197.162,96.8446415 C197.162,97.1146415 196.946,97.3306415 196.676,97.3306415 L184.58,97.3306415 C184.31,97.3306415 184.094,97.1146415 184.094,96.8446415 L184.094,78.9166415 C184.094,78.6466415 184.31,78.4306415 184.58,78.4306415 L196.676,78.4306415 C196.946,78.4306415 197.162,78.6466415 197.162,78.9166415 L197.162,81.9676415 C197.162,82.2376415 196.946,82.4536415 196.676,82.4536415 L188.414,82.4536415 L188.414,85.9906415 L194.759,85.9906415 C195.029,85.9906415 195.245,86.2066415 195.245,86.4766415 L195.245,89.5276415 C195.245,89.7976415 195.029,90.0136415 194.759,90.0136415 Z M215.369,84.6676415 C215.369,87.3406415 213.911,89.2576415 211.886,90.2566415 L214.991,96.8986415 C215.099,97.0876415 214.937,97.3306415 214.721,97.3306415 L210.968,97.3306415 C210.671,97.3306415 210.401,97.1686415 210.266,96.8986415 L207.512,90.9856415 L205.595,90.9856415 L205.595,96.8446415 C205.595,97.1146415 205.379,97.3306415 205.109,97.3306415 L201.788,97.3306415 C201.518,97.3306415 201.302,97.1146415 201.302,96.8446415 L201.302,78.9166415 C201.302,78.6466415 201.518,78.4306415 201.788,78.4306415 L208.538,78.4306415 C213.776,78.4306415 215.369,82.1026415 215.369,84.6676415 Z M208.781,86.9356415 C210.617,86.8816415 211.049,85.3696415 211.049,84.6676415 C211.049,83.8846415 210.617,82.4266415 208.673,82.4266415 L205.595,82.4266415 L205.595,86.9356415 L208.781,86.9356415 Z M238.094,90.0136415 L231.722,90.0136415 L231.722,96.8446415 C231.722,97.1146415 231.506,97.3306415 231.236,97.3306415 L227.915,97.3306415 C227.645,97.3306415 227.429,97.1146415 227.429,96.8446415 L227.429,78.9166415 C227.429,78.6466415 227.645,78.4306415 227.915,78.4306415 L239.984,78.4306415 C240.254,78.4306415 240.47,78.6466415 240.47,78.9166415 L240.47,81.9676415 C240.47,82.2376415 240.254,82.4536415 239.984,82.4536415 L231.722,82.4536415 L231.722,85.9906415 L238.094,85.9906415 C238.364,85.9906415 238.58,86.2066415 238.58,86.4766415 L238.58,89.5276415 C238.58,89.7976415 238.364,90.0136415 238.094,90.0136415 Z M252.116,78.1066415 C259.271,78.1066415 261.485,83.9116415 261.485,87.8536415 C261.485,91.9036415 259.271,97.6276415 252.116,97.6276415 C244.934,97.6276415 242.72,91.9036415 242.72,87.8536415 C242.72,83.9116415 244.934,78.1066415 252.116,78.1066415 Z M252.116,93.5776415 C256.463,93.5776415 257.084,89.2576415 257.084,87.8536415 C257.084,86.4496415 256.463,82.1836415 252.116,82.1836415 C247.742,82.1836415 247.121,86.4496415 247.121,87.8536415 C247.121,89.2576415 247.742,93.5776415 252.116,93.5776415 Z M279.692,84.6676415 C279.692,87.3406415 278.234,89.2576415 276.209,90.2566415 L279.314,96.8986415 C279.422,97.0876415 279.26,97.3306415 279.044,97.3306415 L275.291,97.3306415 C274.994,97.3306415 274.724,97.1686415 274.589,96.8986415 L271.835,90.9856415 L269.918,90.9856415 L269.918,96.8446415 C269.918,97.1146415 269.702,97.3306415 269.432,97.3306415 L266.111,97.3306415 C265.841,97.3306415 265.625,97.1146415 265.625,96.8446415 L265.625,78.9166415 C265.625,78.6466415 265.841,78.4306415 266.111,78.4306415 L272.861,78.4306415 C278.099,78.4306415 279.692,82.1026415 279.692,84.6676415 Z M273.104,86.9356415 C274.94,86.8816415 275.372,85.3696415 275.372,84.6676415 C275.372,83.8846415 274.94,82.4266415 272.996,82.4266415 L269.918,82.4266415 L269.918,86.9356415 L273.104,86.9356415 Z M296.099,90.9856415 L296.099,96.8446415 C296.099,97.1146415 295.883,97.3306415 295.613,97.3306415 L292.238,97.3306415 C291.968,97.3306415 291.752,97.1146415 291.752,96.8446415 L291.752,78.9166415 C291.752,78.6466415 291.968,78.4306415 292.238,78.4306415 L299.042,78.4306415 C304.28,78.4306415 305.873,82.1026415 305.873,84.6676415 C305.873,88.4476415 302.552,90.9856415 299.366,90.9856415 L296.099,90.9856415 Z M299.258,86.9356415 C301.121,86.8816415 301.553,85.3696415 301.553,84.6676415 C301.553,83.8846415 301.121,82.4266415 299.177,82.4266415 L296.099,82.4266415 L296.099,86.9356415 L299.258,86.9356415 Z M314.09,78.9166415 L314.09,93.3076415 L320.435,93.3076415 C320.705,93.3076415 320.921,93.5236415 320.921,93.7936415 L320.921,96.8446415 C320.921,97.1146415 320.705,97.3306415 320.435,97.3306415 L310.229,97.3306415 C309.959,97.3306415 309.743,97.1146415 309.743,96.8446415 L309.743,78.9166415 C309.743,78.6466415 309.959,78.4306415 310.229,78.4306415 L313.604,78.4306415 C313.874,78.4306415 314.09,78.6466415 314.09,78.9166415 Z M332.945,78.6466415 L341.261,96.8986415 C341.369,97.0876415 341.207,97.3306415 340.991,97.3306415 L337.13,97.3306415 C336.833,97.3306415 336.563,97.1416415 336.455,96.8716415 L335.105,93.4966415 L329.543,93.4966415 L328.193,96.8716415 C328.085,97.1416415 327.815,97.3306415 327.518,97.3306415 L323.657,97.3306415 C323.441,97.3306415 323.279,97.0876415 323.36,96.8986415 L331.649,78.6466415 C331.757,78.3766415 332.027,78.2146415 332.297,78.2146415 C332.567,78.2146415 332.837,78.3766415 332.945,78.6466415 Z M332.324,86.6116415 L330.893,90.1216415 L333.728,90.1216415 L332.324,86.6116415 Z M348.668,97.3306415 L345.293,97.3306415 C345.023,97.3306415 344.807,97.1146415 344.807,96.8446415 L344.807,78.5656415 C344.807,78.3496415 344.969,78.1606415 345.185,78.1606415 C345.455,78.1606415 345.698,78.2686415 345.887,78.4306415 L356.147,88.0156415 L356.147,78.9166415 C356.147,78.6466415 356.363,78.4306415 356.633,78.4306415 L359.981,78.4306415 C360.251,78.4306415 360.467,78.6466415 360.467,78.9166415 L360.467,97.1146415 C360.467,97.3036415 360.305,97.4656415 360.116,97.4656415 C359.9,97.4656415 359.684,97.3846415 359.522,97.2226415 L349.154,87.4216415 L349.154,96.8446415 C349.154,97.1146415 348.938,97.3306415 348.668,97.3306415 Z M368.873,96.8446415 L368.873,82.4536415 L364.418,82.4536415 C364.148,82.4536415 363.932,82.2376415 363.932,81.9676415 L363.932,78.9166415 C363.932,78.6466415 364.148,78.4306415 364.418,78.4306415 L377.729,78.4306415 C377.999,78.4306415 378.215,78.6466415 378.215,78.9166415 L378.215,81.9676415 C378.215,82.2376415 377.999,82.4536415 377.729,82.4536415 L373.22,82.4536415 L373.22,96.8446415 C373.22,97.1146415 373.004,97.3306415 372.734,97.3306415 L369.359,97.3306415 C369.089,97.3306415 368.873,97.1146415 368.873,96.8446415 Z M117.584,110.517641 C120.203,111.435641 123.092,112.731641 123.092,116.187641 C123.092,119.481641 120.23,122.046641 116.099,122.046641 C113.48,122.046641 111.347,121.398641 109.052,120.210641 C108.809,120.102641 108.728,119.805641 108.836,119.562641 L110.321,116.808641 C110.429,116.565641 110.726,116.484641 110.969,116.592641 C112.697,117.375641 114.371,117.996641 115.937,117.996641 C117.341,117.996641 118.529,117.321641 118.529,116.376641 C118.529,115.188641 117.071,114.675641 115.289,114.108641 C112.562,113.217641 109.133,112.164641 109.133,108.276641 C109.133,104.739641 111.752,102.633641 115.37,102.633641 C116.558,102.633641 119.042,102.795641 122.201,104.253641 C122.444,104.388641 122.552,104.658641 122.444,104.928641 L121.229,107.709641 C121.121,107.952641 120.851,108.060641 120.581,107.952641 C119.393,107.520641 117.152,106.710641 115.64,106.710641 C114.506,106.710641 113.453,107.061641 113.48,108.087641 C113.588,109.248641 115.478,109.761641 117.584,110.517641 Z M135.548,113.433641 L135.548,121.344641 C135.548,121.614641 135.332,121.830641 135.062,121.830641 L131.741,121.830641 C131.471,121.830641 131.255,121.614641 131.255,121.344641 L131.255,113.487641 L125.045,103.335641 C124.937,103.173641 125.072,102.930641 125.288,102.930641 L129.095,102.930641 C129.392,102.930641 129.662,103.092641 129.824,103.335641 L133.388,109.275641 L136.952,103.335641 C137.087,103.092641 137.384,102.930641 137.681,102.930641 L141.515,102.930641 C141.731,102.930641 141.866,103.173641 141.758,103.335641 L135.548,113.433641 Z M152.675,110.517641 C155.294,111.435641 158.183,112.731641 158.183,116.187641 C158.183,119.481641 155.321,122.046641 151.19,122.046641 C148.571,122.046641 146.438,121.398641 144.143,120.210641 C143.9,120.102641 143.819,119.805641 143.927,119.562641 L145.412,116.808641 C145.52,116.565641 145.817,116.484641 146.06,116.592641 C147.788,117.375641 149.462,117.996641 151.028,117.996641 C152.432,117.996641 153.62,117.321641 153.62,116.376641 C153.62,115.188641 152.162,114.675641 150.38,114.108641 C147.653,113.217641 144.224,112.164641 144.224,108.276641 C144.224,104.739641 146.843,102.633641 150.461,102.633641 C151.649,102.633641 154.133,102.795641 157.292,104.253641 C157.535,104.388641 157.643,104.658641 157.535,104.928641 L156.32,107.709641 C156.212,107.952641 155.942,108.060641 155.672,107.952641 C154.484,107.520641 152.243,106.710641 150.731,106.710641 C149.597,106.710641 148.544,107.061641 148.571,108.087641 C148.679,109.248641 150.569,109.761641 152.675,110.517641 Z M165.239,121.344641 L165.239,106.953641 L160.784,106.953641 C160.514,106.953641 160.298,106.737641 160.298,106.467641 L160.298,103.416641 C160.298,103.146641 160.514,102.930641 160.784,102.930641 L174.095,102.930641 C174.365,102.930641 174.581,103.146641 174.581,103.416641 L174.581,106.467641 C174.581,106.737641 174.365,106.953641 174.095,106.953641 L169.586,106.953641 L169.586,121.344641 C169.586,121.614641 169.37,121.830641 169.1,121.830641 L165.725,121.830641 C165.455,121.830641 165.239,121.614641 165.239,121.344641 Z M188.981,114.513641 L182.636,114.513641 L182.636,117.807641 L190.898,117.807641 C191.168,117.807641 191.384,118.023641 191.384,118.293641 L191.384,121.344641 C191.384,121.614641 191.168,121.830641 190.898,121.830641 L178.802,121.830641 C178.532,121.830641 178.316,121.614641 178.316,121.344641 L178.316,103.416641 C178.316,103.146641 178.532,102.930641 178.802,102.930641 L190.898,102.930641 C191.168,102.930641 191.384,103.146641 191.384,103.416641 L191.384,106.467641 C191.384,106.737641 191.168,106.953641 190.898,106.953641 L182.636,106.953641 L182.636,110.490641 L188.981,110.490641 C189.251,110.490641 189.467,110.706641 189.467,110.976641 L189.467,114.027641 C189.467,114.297641 189.251,114.513641 188.981,114.513641 Z M206.486,113.379641 L211.373,103.119641 C211.481,102.876641 211.724,102.714641 211.994,102.714641 C212.264,102.714641 212.507,102.876641 212.615,103.146641 L219.176,121.371641 C219.257,121.587641 219.095,121.830641 218.852,121.830641 L215.234,121.830641 C214.937,121.830641 214.694,121.641641 214.586,121.371641 L211.481,112.083641 L207.107,121.641641 C206.999,121.884641 206.756,122.046641 206.486,122.046641 C206.216,122.046641 205.973,121.884641 205.865,121.641641 L201.491,112.083641 L198.386,121.371641 C198.278,121.641641 198.035,121.830641 197.738,121.830641 L194.12,121.830641 C193.877,121.830641 193.715,121.587641 193.796,121.371641 L200.357,103.146641 C200.465,102.876641 200.708,102.714641 200.951,102.714641 C201.221,102.714641 201.491,102.876641 201.599,103.119641 L206.486,113.379641 Z M230.552,110.517641 C233.171,111.435641 236.06,112.731641 236.06,116.187641 C236.06,119.481641 233.198,122.046641 229.067,122.046641 C226.448,122.046641 224.315,121.398641 222.02,120.210641 C221.777,120.102641 221.696,119.805641 221.804,119.562641 L223.289,116.808641 C223.397,116.565641 223.694,116.484641 223.937,116.592641 C225.665,117.375641 227.339,117.996641 228.905,117.996641 C230.309,117.996641 231.497,117.321641 231.497,116.376641 C231.497,115.188641 230.039,114.675641 228.257,114.108641 C225.53,113.217641 222.101,112.164641 222.101,108.276641 C222.101,104.739641 224.72,102.633641 228.338,102.633641 C229.526,102.633641 232.01,102.795641 235.169,104.253641 C235.412,104.388641 235.52,104.658641 235.412,104.928641 L234.197,107.709641 C234.089,107.952641 233.819,108.060641 233.549,107.952641 C232.361,107.520641 230.12,106.710641 228.608,106.710641 C227.474,106.710641 226.421,107.061641 226.448,108.087641 C226.556,109.248641 228.446,109.761641 230.552,110.517641 Z M259.757,112.353641 C261.161,112.893641 262.187,114.378641 262.187,116.079641 C262.187,118.644641 260.594,121.830641 255.356,121.830641 L248.606,121.830641 C248.336,121.830641 248.12,121.614641 248.12,121.344641 L248.12,103.416641 C248.12,103.146641 248.336,102.930641 248.606,102.930641 L255.356,102.930641 C260.594,102.930641 262.187,106.143641 262.187,108.708641 C262.187,110.004641 261.188,111.759641 259.757,112.353641 Z M255.626,117.807641 C257.516,117.807641 257.813,116.511641 257.813,116.079641 C257.813,115.512641 257.543,114.324641 255.68,114.270641 L252.413,114.270641 L252.413,117.807641 L255.626,117.807641 Z M255.68,110.679641 C257.543,110.625641 257.813,109.221641 257.813,108.708641 C257.813,108.276641 257.516,106.926641 255.626,106.926641 L252.413,106.926641 L252.413,110.679641 L255.68,110.679641 Z M270.647,103.416641 L270.647,121.344641 C270.647,121.614641 270.431,121.830641 270.161,121.830641 L266.813,121.830641 C266.543,121.830641 266.327,121.614641 266.327,121.344641 L266.327,103.416641 C266.327,103.146641 266.543,102.930641 266.813,102.930641 L270.161,102.930641 C270.431,102.930641 270.647,103.146641 270.647,103.416641 Z M284.183,102.606641 C291.338,102.606641 293.552,108.411641 293.552,112.353641 C293.552,116.403641 291.338,122.127641 284.183,122.127641 C277.001,122.127641 274.787,116.403641 274.787,112.353641 C274.787,108.411641 277.001,102.606641 284.183,102.606641 Z M284.183,118.077641 C288.53,118.077641 289.151,113.757641 289.151,112.353641 C289.151,110.949641 288.53,106.683641 284.183,106.683641 C279.809,106.683641 279.188,110.949641 279.188,112.353641 C279.188,113.757641 279.809,118.077641 284.183,118.077641 Z M302.039,103.416641 L302.039,117.807641 L308.384,117.807641 C308.654,117.807641 308.87,118.023641 308.87,118.293641 L308.87,121.344641 C308.87,121.614641 308.654,121.830641 308.384,121.830641 L298.178,121.830641 C297.908,121.830641 297.692,121.614641 297.692,121.344641 L297.692,103.416641 C297.692,103.146641 297.908,102.930641 298.178,102.930641 L301.553,102.930641 C301.823,102.930641 302.039,103.146641 302.039,103.416641 Z M320.516,102.606641 C327.671,102.606641 329.885,108.411641 329.885,112.353641 C329.885,116.403641 327.671,122.127641 320.516,122.127641 C313.334,122.127641 311.12,116.403641 311.12,112.353641 C311.12,108.411641 313.334,102.606641 320.516,102.606641 Z M320.516,118.077641 C324.863,118.077641 325.484,113.757641 325.484,112.353641 C325.484,110.949641 324.863,106.683641 320.516,106.683641 C316.142,106.683641 315.521,110.949641 315.521,112.353641 C315.521,113.757641 316.142,118.077641 320.516,118.077641 Z M345.041,115.431641 L341.936,115.431641 C341.666,115.431641 341.45,115.215641 341.45,114.945641 L341.45,111.948641 C341.45,111.678641 341.666,111.462641 341.936,111.462641 L348.902,111.462641 C349.172,111.462641 349.388,111.678641 349.388,111.948641 L349.388,118.671641 C349.388,118.995641 349.253,119.292641 349.037,119.508641 C347.255,121.155641 345.122,122.073641 342.341,122.073641 C335.159,122.073641 332.945,116.403641 332.945,112.353641 C332.945,108.411641 335.159,102.660641 342.341,102.660641 C345.23,102.660641 347.363,103.794641 349.199,105.603641 C349.388,105.792641 349.388,106.116641 349.199,106.305641 L347.174,108.519641 C346.985,108.708641 346.688,108.708641 346.499,108.546641 C345.365,107.547641 343.664,106.737641 342.341,106.737641 C337.967,106.737641 337.346,110.895641 337.346,112.299641 C337.346,113.703641 337.967,118.077641 342.341,118.077641 C343.259,118.077641 344.42,117.753641 345.041,117.294641 L345.041,115.431641 Z M362.519,113.433641 L362.519,121.344641 C362.519,121.614641 362.303,121.830641 362.033,121.830641 L358.712,121.830641 C358.442,121.830641 358.226,121.614641 358.226,121.344641 L358.226,113.487641 L352.016,103.335641 C351.908,103.173641 352.043,102.930641 352.259,102.930641 L356.066,102.930641 C356.363,102.930641 356.633,103.092641 356.795,103.335641 L360.359,109.275641 L363.923,103.335641 C364.058,103.092641 364.355,102.930641 364.652,102.930641 L368.486,102.930641 C368.702,102.930641 368.837,103.173641 368.729,103.335641 L362.519,113.433641 Z" id="VIB-UGENTCENTERFORPLANTSYSTEMSBIOLOGY" fill="#1B2944" fill-rule="nonzero"></path>
        </g>
    </g>
</svg>