<svg id="Layer_1" data-name="Layer 1" xmlns="http://www.w3.org/2000/svg" viewBox="0 0 181.98 55.26"><defs><style>.cls-1,.cls-2,.cls-3,.cls-4{fill:none;stroke-miterlimit:10;}.cls-1{stroke:#a3adbf;}.cls-2{stroke:#7292b7;}.cls-3{stroke:#3a67a6;}.cls-4{stroke:#294a9a;}.cls-5{font-size:24px;}.cls-5,.cls-7{fill:#294a9a;}.cls-5,.cls-6{font-family:astroRegular, ASTRO;}.cls-6{font-size:17px;}.cls-10,.cls-6{fill:#7292b7;}.cls-8{fill:#a3adbf;}.cls-9{fill:#3a67a6;}</style></defs><title>MyGenLogo_Final</title><path class="cls-1" d="M57.3,45.91c-8.66-1.34-17.51,9.52-19.79,24.27" transform="translate(-28.95 -24.08)"/><path class="cls-2" d="M54,67.3C55.42,62,45,54.54,30.71,50.68" transform="translate(-28.95 -24.08)"/><path class="cls-3" d="M44.07,70.29c4.84-2.65,3-15.35-4.15-28.39" transform="translate(-28.95 -24.08)"/><path class="cls-4" d="M34.77,44.52c0,5.52,10.08,10,22.54,10" transform="translate(-28.95 -24.08)"/><text class="cls-5" transform="translate(35.57 33.14)">MYGEN</text><text class="cls-6" transform="translate(36.28 51.9)">INFORMATICS</text><path class="cls-7" d="M31.25,64.12a64,64,0,0,1-2.11-7.51,23.27,23.27,0,0,1,.05-6.28,11.78,11.78,0,0,1,1.25-4,20.05,20.05,0,0,1,2.51-4A8.32,8.32,0,0,1,35.76,40a20.35,20.35,0,0,1,4.69-1.62,23.45,23.45,0,0,1,4.85-.46c1.11,0,1.52.22,1.81.68s.06,1.39,0,2.09.07,1.79-.55,2.11-2-.31-3.14-.19a14.44,14.44,0,0,0-3.9.88c-.94.44-1,1-1.72,1.77a23.87,23.87,0,0,0-2.84,2.94,9.17,9.17,0,0,0-1,3.08,13.14,13.14,0,0,0-.44,3.09A13.41,13.41,0,0,0,34,57.2,11.9,11.9,0,0,0,34.51,59c.21.55,1.26.69.7,1.56s-3.35,3-4,3.62m.27.31c-.41-1.28-2.06-5.37-2.39-7.69a22.42,22.42,0,0,1,.4-6.26A16.91,16.91,0,0,1,30.4,46a12.09,12.09,0,0,1,2.4-3.62,11,11,0,0,1,3.08-2.05,22.53,22.53,0,0,1,4.58-2.06,15.73,15.73,0,0,1,4.72-.33,2.84,2.84,0,0,1,2.15,1c.33.46-.05,1.13-.17,1.81s.1,2-.55,2.27-2.16-.47-3.35-.41a12,12,0,0,0-3.77.79c-.93.43-1.08,1-1.83,1.81A22.39,22.39,0,0,0,35,48.09,7.82,7.82,0,0,0,34,51a22.6,22.6,0,0,0-.36,3.47,15.17,15.17,0,0,0,.18,2.72,8.63,8.63,0,0,0,.5,1.72c.18.51,1,.44.55,1.36a36.68,36.68,0,0,1-3.47,4.17" transform="translate(-28.95 -24.08)"/><path class="cls-8" d="M48,42.36c.08-.6,0-3.21.71-3.81s2.43-.12,3.59.23a10,10,0,0,1,3.4,1.9,24.88,24.88,0,0,1,3.09,3.46,10.12,10.12,0,0,1,1.39,2.25,19.57,19.57,0,0,1,1.25,3.11,9.9,9.9,0,0,1,.41,2.89,24.49,24.49,0,0,1-.45,3.49c-.17,1-.19,2.35-.58,2.69s-1.15-.37-1.79-.64-1.71-.47-2.08-1-.17-1.24-.15-2.11.3-2.19.25-3.1a7.69,7.69,0,0,0-.58-2.31,10.67,10.67,0,0,0-1.15-2.55,8.08,8.08,0,0,0-1.94-1.76,20,20,0,0,0-2.67-1.61c-.9-.45-2.33-.87-2.75-1.11m.32-.14c.13-.57.12-3,.76-3.58s2-.17,3.12.19a12.07,12.07,0,0,1,3.66,2,20.27,20.27,0,0,1,2.77,3.27,14.56,14.56,0,0,1,1.77,2.55,12.93,12.93,0,0,1,.72,2.63,20.13,20.13,0,0,1,.7,3,11.94,11.94,0,0,1-.09,3.36,6.85,6.85,0,0,1-1.21,2.89c-.43.32-.74-.67-1.36-1s-2-.25-2.35-.73,0-1.31.07-2.17a18,18,0,0,0,.6-3,5.94,5.94,0,0,0-1-2.34A20,20,0,0,0,55,47a13,13,0,0,0-1.82-2.22A11.81,11.81,0,0,0,51,43.57c-.83-.46-2.33-1.35-2.78-1.57" transform="translate(-28.95 -24.08)"/><path class="cls-9" d="M36.07,61.46a18.92,18.92,0,0,1-1.65,1.86c-.68.63-2.23,1.4-2.41,1.94s.8.75,1.31,1.28,1.06,1.29,1.76,1.89a22,22,0,0,0,2.44,1.75,16.73,16.73,0,0,0,2.06,1.11c.65.3,1.37.78,1.86.7s.82-.54,1.07-1.18a7.7,7.7,0,0,0,.43-2.65c-.06-.68-.18-.84-.79-1.42s-2.09-1.42-2.92-2.07-1.53-1.34-2.07-1.86-1-1.09-1.2-1.27m0,.23a6.49,6.49,0,0,1-1.22,1.75c-.6.54-2.17.93-2.4,1.46s.56,1.16,1.06,1.73a15.27,15.27,0,0,0,1.94,1.72,26.83,26.83,0,0,0,2.32,1.68,21.13,21.13,0,0,0,2,1c.61.3,1.17.83,1.61.75s.78-.58,1-1.21a9.93,9.93,0,0,0,.32-2.56c0-.63.24-.63-.36-1.22S39.86,65.21,39,64.59a16.17,16.17,0,0,1-1.85-1.43,14.93,14.93,0,0,1-1.32-1.69" transform="translate(-28.95 -24.08)"/><path class="cls-10" d="M44.72,67.4c-.12-.05-.57-.34-.71,0a10.76,10.76,0,0,0-.14,1.89A9.63,9.63,0,0,0,43.69,71c.07.51-.15,1,.58,1.29a12.29,12.29,0,0,0,3.79.43,8.59,8.59,0,0,0,2.78-.85c.85-.34,1.53-.82,2.35-1.19a13,13,0,0,0,2.55-1,8.08,8.08,0,0,0,1.73-2.2c.45-.73.56-1.46,1-2.17s1.12-1.52,1.47-2.12a3.1,3.1,0,0,0,.59-1.47A2.18,2.18,0,0,0,60,60.1c-.46-.51-1.63-1.48-2.27-1.43s-1,1-1.58,1.77-1.08,2.13-1.67,3a10.15,10.15,0,0,1-1.85,2.1,5.34,5.34,0,0,1-1.88.89,34.75,34.75,0,0,1-3.46,1.06,11.75,11.75,0,0,1-2.3.23m-.07,0c-.14,0-.88-.5-1.07-.2a7.77,7.77,0,0,0,0,2,7.2,7.2,0,0,0-.1,1.64c.11.47.09.92.77,1.17a13.14,13.14,0,0,0,3.34.31,7.38,7.38,0,0,0,2.66-.38A26,26,0,0,0,53,70.65a23.82,23.82,0,0,0,2.57-1.12,9,9,0,0,0,2-2.06,12,12,0,0,0,.9-2c.35-.73.89-1.69,1.21-2.33s.72-1,.75-1.52a2,2,0,0,0-.59-1.5,3.92,3.92,0,0,0-2.05-1c-.6,0-1,.34-1.55,1.09s-1,2.57-1.53,3.4a5.67,5.67,0,0,1-1.87,1.58,14.7,14.7,0,0,1-2.27,1.24,20,20,0,0,1-3.28,1.31,6.62,6.62,0,0,1-2.38-.06" transform="translate(-28.95 -24.08)"/></svg>